<svg xmlns="http://www.w3.org/2000/svg" xmlns:xlink="http://www.w3.org/1999/xlink" width="500" zoomAndPan="magnify" viewBox="0 0 375 149.999998" height="200" preserveAspectRatio="xMidYMid meet" version="1.0"><defs><g/><clipPath id="d29a21bfd8"><path d="M 7.5 23.027344 L 82 23.027344 L 82 94 L 7.5 94 Z M 7.5 23.027344 " clip-rule="nonzero"/></clipPath><clipPath id="b4bff5603b"><path d="M 80 23.027344 L 155.25 23.027344 L 155.25 94 L 80 94 Z M 80 23.027344 " clip-rule="nonzero"/></clipPath></defs><g clip-path="url(#d29a21bfd8)"><path fill="#000000" d="M 81.71875 84.582031 C 47.414062 83.144531 62.886719 51.523438 48.605469 45.289062 C 34.324219 39.054688 7.792969 23.027344 7.792969 23.027344 C 12.632812 41.152344 31.519531 48.640625 31.519531 48.640625 C 19.765625 49.191406 7.496094 43.285156 7.496094 43.285156 C 14.03125 56.28125 27.578125 57.734375 27.578125 57.734375 C 21.339844 60.144531 9.84375 58.726562 9.84375 58.726562 C 20.78125 73.4375 38.871094 71.132812 38.871094 71.132812 L 26.511719 73.625 C 34.324219 80.191406 44.445312 82.96875 50.429688 83.65625 C 47.429688 85.542969 44.808594 86.238281 44.808594 86.238281 C 54.847656 92.464844 63.894531 93.085938 63.894531 93.085938 C 63.894531 93.085938 76.449219 94.378906 81.71875 84.582031 " fill-opacity="1" fill-rule="nonzero"/></g><g clip-path="url(#b4bff5603b)"><path fill="#000000" d="M 80.96875 84.582031 C 115.273438 83.144531 99.800781 51.523438 114.082031 45.289062 C 128.363281 39.054688 154.898438 23.027344 154.898438 23.027344 C 150.054688 41.152344 131.167969 48.640625 131.167969 48.640625 C 142.921875 49.191406 155.191406 43.285156 155.191406 43.285156 C 148.65625 56.28125 135.113281 57.734375 135.113281 57.734375 C 141.347656 60.144531 152.84375 58.726562 152.84375 58.726562 C 141.90625 73.4375 123.816406 71.132812 123.816406 71.132812 L 136.175781 73.625 C 128.363281 80.191406 118.242188 82.96875 112.257812 83.65625 C 115.257812 85.542969 117.878906 86.238281 117.878906 86.238281 C 107.839844 92.464844 98.792969 93.085938 98.792969 93.085938 C 98.792969 93.085938 86.238281 94.378906 80.96875 84.582031 " fill-opacity="1" fill-rule="nonzero"/></g><path fill="#000000" d="M 69.488281 123.007812 C 68.355469 122.21875 66.539062 121.191406 65.753906 120.363281 C 64.472656 119.011719 63.699219 113.207031 63.699219 113.207031 C 63.84375 111.722656 65.34375 108.101562 66.019531 106.710938 C 63.007812 106.058594 59.289062 107.195312 56.429688 107.046875 C 55.957031 108.820312 55.496094 110.941406 54.398438 113.007812 C 54.398438 113.007812 63.808594 121.351562 63.710938 125.179688 C 63.710938 125.179688 66.128906 126.007812 67.289062 126.96875 L 73.496094 126.96875 C 72.722656 125.066406 71.773438 124.597656 69.488281 123.007812 " fill-opacity="1" fill-rule="nonzero"/><path fill="#000000" d="M 111.78125 124.347656 C 109.4375 122.125 107.15625 118.28125 106.945312 118.007812 C 105.089844 115.621094 101.378906 113.296875 100.996094 111.027344 C 100.390625 107.40625 101.414062 105.128906 101.3125 100.007812 C 100 102.644531 98.367188 105.050781 96.933594 107.164062 C 95.964844 108.589844 95.0625 109.917969 94.386719 111.117188 L 94.492188 112.320312 C 94.542969 113.292969 94.5625 114.195312 94.53125 114.929688 C 94.53125 114.929688 98.046875 116.726562 101.917969 119.03125 C 103.773438 120.132812 104.042969 122.28125 104.800781 124.011719 C 105.082031 124.640625 104.75 125.597656 104.921875 126.226562 L 111.601562 126.277344 C 113.523438 125.484375 114.828125 126.582031 114.828125 126.582031 C 114.925781 124.378906 111.78125 124.347656 111.78125 124.347656 " fill-opacity="1" fill-rule="nonzero"/><path fill="#000000" d="M 78.867188 62.976562 C 78.285156 63.074219 76.625 62.199219 76.625 62.199219 L 81.34375 61.003906 C 81.34375 61.003906 79.648438 62.84375 78.867188 62.976562 Z M 102.773438 93.390625 C 103.390625 89.789062 104.277344 86.441406 103.921875 82.75 C 103.058594 73.785156 96.011719 63.53125 86.980469 61.066406 C 87.996094 59.089844 88.824219 56.890625 88.824219 56.890625 C 83.898438 60.214844 75.777344 60.636719 71.542969 62.394531 C 66.132812 64.636719 65.417969 69.714844 67.53125 72.300781 C 67.496094 70.523438 70.539062 67.0625 74.65625 68.492188 C 78.484375 69.816406 80.691406 72.183594 81.964844 74.417969 C 83.824219 77.6875 83.257812 81.765625 80.648438 84.476562 C 72.835938 92.597656 57.292969 91.894531 47.964844 92.90625 C 31.886719 94.644531 29.738281 108.40625 19.535156 110.761719 C 13.949219 112.054688 13.421875 104.199219 13.371094 102.628906 C 13.652344 102.4375 15.34375 101.230469 15.355469 99.644531 L 14.714844 100.28125 C 14.714844 100.28125 15.613281 98.777344 14.042969 96.609375 L 13.863281 97.441406 L 13.097656 95.339844 L 11.96875 97.675781 L 11.921875 96.738281 C 10.636719 98.863281 11.476562 100.28125 11.476562 100.28125 L 10.835938 99.644531 C 10.980469 102.054688 12.539062 102.523438 12.539062 102.523438 C 12.046875 120.089844 25.589844 113.039062 31.210938 107.089844 C 35.132812 102.933594 38.824219 100.78125 41.8125 99.683594 C 38.996094 103.871094 34.699219 109.039062 32.796875 111.015625 C 32.796875 111.015625 33.960938 119.847656 35.730469 122.394531 C 35.730469 122.394531 37.1875 125.023438 37.515625 126.582031 L 44.277344 126.582031 C 43.542969 124.691406 41.597656 124.394531 40.457031 122.585938 C 39.894531 121.695312 38.921875 120.425781 38.613281 119.605469 C 38.113281 118.265625 39.304688 113.9375 39.304688 113.9375 C 40.421875 111.753906 45.957031 108.527344 48.109375 107.332031 C 59.722656 102.71875 77.015625 114.003906 86.324219 108.503906 C 86.324219 108.503906 86.207031 111.765625 85.09375 115.230469 C 85.09375 115.230469 88.957031 119.65625 91.113281 123.832031 C 91.523438 124.625 91.355469 125.878906 91.648438 126.582031 L 96.667969 126.582031 C 98.511719 125.613281 99.820312 126.582031 99.820312 126.582031 C 99.710938 124.378906 96.691406 124.503906 96.691406 124.503906 C 94.148438 122.515625 92.191406 116.671875 92.449219 114.101562 C 92.921875 109.472656 101.246094 102.359375 102.773438 93.390625 " fill-opacity="1" fill-rule="nonzero"/><g fill="#000000" fill-opacity="1"><g transform="translate(166.978633, 85.045005)"><g><path d="M 4.296875 -17.703125 L 6.765625 -17.703125 C 7.816406 -17.703125 8.609375 -17.429688 9.140625 -16.890625 C 9.679688 -16.347656 9.953125 -15.554688 9.953125 -14.515625 L 9.953125 -12.171875 C 9.953125 -11.929688 9.835938 -11.8125 9.609375 -11.8125 L 7.296875 -11.8125 C 7.066406 -11.8125 6.953125 -11.929688 6.953125 -12.171875 L 6.953125 -13.890625 C 6.953125 -14.484375 6.65625 -14.78125 6.0625 -14.78125 L 5 -14.78125 C 4.40625 -14.78125 4.109375 -14.484375 4.109375 -13.890625 L 4.109375 -10.84375 L 9.375 -9.109375 C 9.757812 -8.953125 9.953125 -8.679688 9.953125 -8.296875 L 9.953125 -3.1875 C 9.953125 -2.15625 9.679688 -1.363281 9.140625 -0.8125 C 8.609375 -0.269531 7.816406 0 6.765625 0 L 4.296875 0 C 3.265625 0 2.472656 -0.269531 1.921875 -0.8125 C 1.378906 -1.363281 1.109375 -2.15625 1.109375 -3.1875 L 1.109375 -5.515625 C 1.109375 -5.742188 1.222656 -5.859375 1.453125 -5.859375 L 3.765625 -5.859375 C 3.992188 -5.859375 4.109375 -5.742188 4.109375 -5.515625 L 4.109375 -3.8125 C 4.109375 -3.21875 4.40625 -2.921875 5 -2.921875 L 6.0625 -2.921875 C 6.65625 -2.921875 6.953125 -3.21875 6.953125 -3.8125 L 6.953125 -6.75 L 1.703125 -8.46875 C 1.304688 -8.601562 1.109375 -8.878906 1.109375 -9.296875 L 1.109375 -14.515625 C 1.109375 -15.554688 1.378906 -16.347656 1.921875 -16.890625 C 2.472656 -17.429688 3.265625 -17.703125 4.296875 -17.703125 Z M 4.296875 -17.703125 "/></g></g></g><g fill="#000000" fill-opacity="1"><g transform="translate(182.240388, 85.045005)"><g><path d="M 1.015625 -17.703125 L 9.15625 -17.703125 C 9.394531 -17.703125 9.515625 -17.582031 9.515625 -17.34375 L 9.515625 -15.140625 C 9.515625 -14.898438 9.394531 -14.78125 9.15625 -14.78125 L 6.59375 -14.78125 L 6.59375 -0.359375 C 6.59375 -0.117188 6.472656 0 6.234375 0 L 3.9375 0 C 3.695312 0 3.578125 -0.117188 3.578125 -0.359375 L 3.578125 -14.78125 L 1.015625 -14.78125 C 0.773438 -14.78125 0.65625 -14.898438 0.65625 -15.140625 L 0.65625 -17.34375 C 0.65625 -17.582031 0.773438 -17.703125 1.015625 -17.703125 Z M 1.015625 -17.703125 "/></g></g></g><g fill="#000000" fill-opacity="1"><g transform="translate(196.617584, 85.045005)"><g><path d="M 11.765625 0 L 9.421875 0 C 9.234375 0 9.117188 -0.101562 9.078125 -0.3125 L 8.453125 -3.546875 L 4.515625 -3.546875 L 3.921875 -0.3125 C 3.867188 -0.101562 3.75 0 3.5625 0 L 1.1875 0 C 0.925781 0 0.832031 -0.125 0.90625 -0.375 L 4.578125 -17.390625 C 4.617188 -17.597656 4.742188 -17.703125 4.953125 -17.703125 L 8.03125 -17.703125 C 8.238281 -17.703125 8.363281 -17.597656 8.40625 -17.390625 L 12.078125 -0.375 C 12.117188 -0.125 12.015625 0 11.765625 0 Z M 7.90625 -6.109375 L 6.484375 -13.828125 L 5.0625 -6.109375 Z M 7.90625 -6.109375 "/></g></g></g><g fill="#000000" fill-opacity="1"><g transform="translate(213.781155, 85.045005)"><g><path d="M 11.765625 0 L 9.421875 0 C 9.234375 0 9.117188 -0.101562 9.078125 -0.3125 L 8.453125 -3.546875 L 4.515625 -3.546875 L 3.921875 -0.3125 C 3.867188 -0.101562 3.75 0 3.5625 0 L 1.1875 0 C 0.925781 0 0.832031 -0.125 0.90625 -0.375 L 4.578125 -17.390625 C 4.617188 -17.597656 4.742188 -17.703125 4.953125 -17.703125 L 8.03125 -17.703125 C 8.238281 -17.703125 8.363281 -17.597656 8.40625 -17.390625 L 12.078125 -0.375 C 12.117188 -0.125 12.015625 0 11.765625 0 Z M 7.90625 -6.109375 L 6.484375 -13.828125 L 5.0625 -6.109375 Z M 7.90625 -6.109375 "/></g></g></g><g fill="#000000" fill-opacity="1"><g transform="translate(230.944723, 85.045005)"><g><path d="M 4.109375 -2.921875 L 4.109375 -17.34375 C 4.109375 -17.582031 3.992188 -17.703125 3.765625 -17.703125 L 1.453125 -17.703125 C 1.222656 -17.703125 1.109375 -17.582031 1.109375 -17.34375 L 1.109375 -0.359375 C 1.109375 -0.117188 1.222656 0 1.453125 0 L 9.375 0 C 9.613281 0 9.734375 -0.117188 9.734375 -0.359375 L 9.734375 -2.5625 C 9.734375 -2.800781 9.613281 -2.921875 9.375 -2.921875 Z M 4.109375 -2.921875 "/></g></g></g><g fill="#000000" fill-opacity="1"><g transform="translate(245.98534, 85.045005)"><g/></g></g><g fill="#000000" fill-opacity="1"><g transform="translate(255.718568, 85.045005)"><g><path d="M 1.109375 -0.359375 L 1.109375 -17.34375 C 1.109375 -17.582031 1.222656 -17.703125 1.453125 -17.703125 L 6.765625 -17.703125 C 7.816406 -17.703125 8.609375 -17.425781 9.140625 -16.875 C 9.679688 -16.332031 9.953125 -15.535156 9.953125 -14.484375 L 9.953125 -3.1875 C 9.953125 -2.15625 9.679688 -1.363281 9.140625 -0.8125 C 8.609375 -0.269531 7.816406 0 6.765625 0 L 1.453125 0 C 1.222656 0 1.109375 -0.117188 1.109375 -0.359375 Z M 4.109375 -2.921875 L 6.15625 -2.921875 C 6.738281 -2.921875 7.03125 -3.21875 7.03125 -3.8125 L 7.03125 -13.875 C 7.03125 -14.476562 6.738281 -14.78125 6.15625 -14.78125 L 4.109375 -14.78125 Z M 4.109375 -2.921875 "/></g></g></g><g fill="#000000" fill-opacity="1"><g transform="translate(270.980321, 85.045005)"><g><path d="M 1.453125 -17.703125 L 3.765625 -17.703125 C 3.992188 -17.703125 4.109375 -17.582031 4.109375 -17.34375 L 4.109375 -0.359375 C 4.109375 -0.117188 3.992188 0 3.765625 0 L 1.453125 0 C 1.222656 0 1.109375 -0.117188 1.109375 -0.359375 L 1.109375 -17.34375 C 1.109375 -17.582031 1.222656 -17.703125 1.453125 -17.703125 Z M 1.453125 -17.703125 "/></g></g></g><g fill="#000000" fill-opacity="1"><g transform="translate(280.403939, 85.045005)"><g><path d="M 1.109375 -3.1875 L 1.109375 -14.515625 C 1.109375 -15.554688 1.378906 -16.347656 1.921875 -16.890625 C 2.472656 -17.429688 3.265625 -17.703125 4.296875 -17.703125 L 7.21875 -17.703125 C 8.25 -17.703125 9.035156 -17.429688 9.578125 -16.890625 C 10.128906 -16.347656 10.40625 -15.554688 10.40625 -14.515625 L 10.40625 -12.21875 C 10.40625 -11.976562 10.285156 -11.859375 10.046875 -11.859375 L 7.828125 -11.859375 C 7.597656 -11.859375 7.484375 -11.976562 7.484375 -12.21875 L 7.484375 -13.890625 C 7.484375 -14.484375 7.1875 -14.78125 6.59375 -14.78125 L 5 -14.78125 C 4.40625 -14.78125 4.109375 -14.484375 4.109375 -13.890625 L 4.109375 -3.8125 C 4.109375 -3.21875 4.40625 -2.921875 5 -2.921875 L 6.59375 -2.921875 C 7.1875 -2.921875 7.484375 -3.21875 7.484375 -3.8125 L 7.484375 -6.765625 L 6.328125 -6.765625 C 6.085938 -6.765625 5.96875 -6.882812 5.96875 -7.125 L 5.96875 -9.34375 C 5.96875 -9.570312 6.085938 -9.6875 6.328125 -9.6875 L 10.046875 -9.6875 C 10.285156 -9.6875 10.40625 -9.570312 10.40625 -9.34375 L 10.40625 -3.1875 C 10.40625 -2.15625 10.128906 -1.363281 9.578125 -0.8125 C 9.035156 -0.269531 8.25 0 7.21875 0 L 4.296875 0 C 3.265625 0 2.472656 -0.269531 1.921875 -0.8125 C 1.378906 -1.363281 1.109375 -2.15625 1.109375 -3.1875 Z M 1.109375 -3.1875 "/></g></g></g><g fill="#000000" fill-opacity="1"><g transform="translate(296.107981, 85.045005)"><g><path d="M 1.453125 -17.703125 L 3.765625 -17.703125 C 3.992188 -17.703125 4.109375 -17.582031 4.109375 -17.34375 L 4.109375 -0.359375 C 4.109375 -0.117188 3.992188 0 3.765625 0 L 1.453125 0 C 1.222656 0 1.109375 -0.117188 1.109375 -0.359375 L 1.109375 -17.34375 C 1.109375 -17.582031 1.222656 -17.703125 1.453125 -17.703125 Z M 1.453125 -17.703125 "/></g></g></g><g fill="#000000" fill-opacity="1"><g transform="translate(305.531607, 85.045005)"><g><path d="M 1.015625 -17.703125 L 9.15625 -17.703125 C 9.394531 -17.703125 9.515625 -17.582031 9.515625 -17.34375 L 9.515625 -15.140625 C 9.515625 -14.898438 9.394531 -14.78125 9.15625 -14.78125 L 6.59375 -14.78125 L 6.59375 -0.359375 C 6.59375 -0.117188 6.472656 0 6.234375 0 L 3.9375 0 C 3.695312 0 3.578125 -0.117188 3.578125 -0.359375 L 3.578125 -14.78125 L 1.015625 -14.78125 C 0.773438 -14.78125 0.65625 -14.898438 0.65625 -15.140625 L 0.65625 -17.34375 C 0.65625 -17.582031 0.773438 -17.703125 1.015625 -17.703125 Z M 1.015625 -17.703125 "/></g></g></g><g fill="#000000" fill-opacity="1"><g transform="translate(319.908801, 85.045005)"><g><path d="M 11.765625 0 L 9.421875 0 C 9.234375 0 9.117188 -0.101562 9.078125 -0.3125 L 8.453125 -3.546875 L 4.515625 -3.546875 L 3.921875 -0.3125 C 3.867188 -0.101562 3.75 0 3.5625 0 L 1.1875 0 C 0.925781 0 0.832031 -0.125 0.90625 -0.375 L 4.578125 -17.390625 C 4.617188 -17.597656 4.742188 -17.703125 4.953125 -17.703125 L 8.03125 -17.703125 C 8.238281 -17.703125 8.363281 -17.597656 8.40625 -17.390625 L 12.078125 -0.375 C 12.117188 -0.125 12.015625 0 11.765625 0 Z M 7.90625 -6.109375 L 6.484375 -13.828125 L 5.0625 -6.109375 Z M 7.90625 -6.109375 "/></g></g></g><g fill="#000000" fill-opacity="1"><g transform="translate(337.072368, 85.045005)"><g><path d="M 4.109375 -2.921875 L 4.109375 -17.34375 C 4.109375 -17.582031 3.992188 -17.703125 3.765625 -17.703125 L 1.453125 -17.703125 C 1.222656 -17.703125 1.109375 -17.582031 1.109375 -17.34375 L 1.109375 -0.359375 C 1.109375 -0.117188 1.222656 0 1.453125 0 L 9.375 0 C 9.613281 0 9.734375 -0.117188 9.734375 -0.359375 L 9.734375 -2.5625 C 9.734375 -2.800781 9.613281 -2.921875 9.375 -2.921875 Z M 4.109375 -2.921875 "/></g></g></g><g fill="#ff3131" fill-opacity="1"><g transform="translate(166.781038, 105.067902)"><g><path d="M 6.71875 0 L 5.390625 0 C 5.273438 0 5.207031 -0.0546875 5.1875 -0.171875 L 4.828125 -2.015625 L 2.578125 -2.015625 L 2.234375 -0.171875 C 2.210938 -0.0546875 2.144531 0 2.03125 0 L 0.6875 0 C 0.53125 0 0.472656 -0.0703125 0.515625 -0.21875 L 2.609375 -9.9375 C 2.640625 -10.050781 2.710938 -10.109375 2.828125 -10.109375 L 4.59375 -10.109375 C 4.707031 -10.109375 4.773438 -10.050781 4.796875 -9.9375 L 6.90625 -0.21875 C 6.925781 -0.0703125 6.863281 0 6.71875 0 Z M 4.515625 -3.484375 L 3.703125 -7.90625 L 2.890625 -3.484375 Z M 4.515625 -3.484375 "/></g></g></g><g fill="#ff3131" fill-opacity="1"><g transform="translate(176.594411, 105.067902)"><g><path d="M 0.625 -0.203125 L 0.625 -9.90625 C 0.625 -10.039062 0.691406 -10.109375 0.828125 -10.109375 L 3.875 -10.109375 C 4.46875 -10.109375 4.914062 -9.953125 5.21875 -9.640625 C 5.53125 -9.328125 5.6875 -8.875 5.6875 -8.28125 L 5.6875 -1.8125 C 5.6875 -1.226562 5.53125 -0.78125 5.21875 -0.46875 C 4.914062 -0.15625 4.46875 0 3.875 0 L 0.828125 0 C 0.691406 0 0.625 -0.0664062 0.625 -0.203125 Z M 2.34375 -1.671875 L 3.515625 -1.671875 C 3.847656 -1.671875 4.015625 -1.835938 4.015625 -2.171875 L 4.015625 -7.921875 C 4.015625 -8.265625 3.847656 -8.4375 3.515625 -8.4375 L 2.34375 -8.4375 Z M 2.34375 -1.671875 "/></g></g></g><g fill="#ff3131" fill-opacity="1"><g transform="translate(185.320226, 105.067902)"><g><path d="M 5.921875 -10.109375 L 7.578125 -10.109375 C 7.753906 -10.109375 7.84375 -10.023438 7.84375 -9.859375 L 7.84375 -0.25 C 7.84375 -0.0820312 7.753906 0 7.578125 0 L 6.40625 0 C 6.238281 0 6.15625 -0.0820312 6.15625 -0.25 L 6.15625 -5.9375 L 6.0625 -5.9375 L 4.8125 -0.234375 C 4.78125 -0.078125 4.6875 0 4.53125 0 L 3.921875 0 C 3.773438 0 3.679688 -0.078125 3.640625 -0.234375 L 2.390625 -5.9375 L 2.296875 -5.9375 L 2.296875 -0.25 C 2.296875 -0.0820312 2.210938 0 2.046875 0 L 0.890625 0 C 0.710938 0 0.625 -0.0820312 0.625 -0.25 L 0.625 -9.859375 C 0.625 -10.023438 0.710938 -10.109375 0.890625 -10.109375 L 2.546875 -10.109375 C 2.703125 -10.109375 2.796875 -10.035156 2.828125 -9.890625 L 4.234375 -3.59375 L 5.640625 -9.890625 C 5.679688 -10.035156 5.773438 -10.109375 5.921875 -10.109375 Z M 5.921875 -10.109375 "/></g></g></g><g fill="#ff3131" fill-opacity="1"><g transform="translate(196.195879, 105.067902)"><g><path d="M 0.828125 -10.109375 L 2.15625 -10.109375 C 2.28125 -10.109375 2.34375 -10.039062 2.34375 -9.90625 L 2.34375 -0.203125 C 2.34375 -0.0664062 2.28125 0 2.15625 0 L 0.828125 0 C 0.691406 0 0.625 -0.0664062 0.625 -0.203125 L 0.625 -9.90625 C 0.625 -10.039062 0.691406 -10.109375 0.828125 -10.109375 Z M 0.828125 -10.109375 "/></g></g></g><g fill="#ff3131" fill-opacity="1"><g transform="translate(201.583108, 105.067902)"><g><path d="M 4.515625 -10.109375 L 5.828125 -10.109375 C 5.960938 -10.109375 6.03125 -10.039062 6.03125 -9.90625 L 6.03125 -0.203125 C 6.03125 -0.0664062 5.960938 0 5.828125 0 L 4.578125 0 C 4.460938 0 4.382812 -0.0546875 4.34375 -0.171875 L 2.421875 -5.5625 L 2.34375 -5.5625 L 2.34375 -0.203125 C 2.34375 -0.0664062 2.28125 0 2.15625 0 L 0.828125 0 C 0.691406 0 0.625 -0.0664062 0.625 -0.203125 L 0.625 -9.90625 C 0.625 -10.039062 0.691406 -10.109375 0.828125 -10.109375 L 2.078125 -10.109375 C 2.203125 -10.109375 2.28125 -10.054688 2.3125 -9.953125 L 4.234375 -4.578125 L 4.3125 -4.578125 L 4.3125 -9.90625 C 4.3125 -10.039062 4.378906 -10.109375 4.515625 -10.109375 Z M 4.515625 -10.109375 "/></g></g></g><g fill="#ff3131" fill-opacity="1"><g transform="translate(210.650371, 105.067902)"><g/></g></g><g fill="#ff3131" fill-opacity="1"><g transform="translate(216.214643, 105.067902)"><g><path d="M 0.625 -0.203125 L 0.625 -9.90625 C 0.625 -10.039062 0.691406 -10.109375 0.828125 -10.109375 L 3.875 -10.109375 C 4.46875 -10.109375 4.914062 -9.953125 5.21875 -9.640625 C 5.53125 -9.335938 5.6875 -8.890625 5.6875 -8.296875 L 5.6875 -5.203125 C 5.6875 -4.617188 5.53125 -4.171875 5.21875 -3.859375 C 4.914062 -3.546875 4.46875 -3.390625 3.875 -3.390625 L 2.34375 -3.390625 L 2.34375 -0.203125 C 2.34375 -0.0664062 2.28125 0 2.15625 0 L 0.828125 0 C 0.691406 0 0.625 -0.0664062 0.625 -0.203125 Z M 2.34375 -5.0625 L 3.46875 -5.0625 C 3.800781 -5.0625 3.96875 -5.226562 3.96875 -5.5625 L 3.96875 -7.9375 C 3.96875 -8.269531 3.800781 -8.4375 3.46875 -8.4375 L 2.34375 -8.4375 Z M 2.34375 -5.0625 "/></g></g></g><g fill="#ff3131" fill-opacity="1"><g transform="translate(224.940458, 105.067902)"><g><path d="M 6.71875 0 L 5.390625 0 C 5.273438 0 5.207031 -0.0546875 5.1875 -0.171875 L 4.828125 -2.015625 L 2.578125 -2.015625 L 2.234375 -0.171875 C 2.210938 -0.0546875 2.144531 0 2.03125 0 L 0.6875 0 C 0.53125 0 0.472656 -0.0703125 0.515625 -0.21875 L 2.609375 -9.9375 C 2.640625 -10.050781 2.710938 -10.109375 2.828125 -10.109375 L 4.59375 -10.109375 C 4.707031 -10.109375 4.773438 -10.050781 4.796875 -9.9375 L 6.90625 -0.21875 C 6.925781 -0.0703125 6.863281 0 6.71875 0 Z M 4.515625 -3.484375 L 3.703125 -7.90625 L 2.890625 -3.484375 Z M 4.515625 -3.484375 "/></g></g></g><g fill="#ff3131" fill-opacity="1"><g transform="translate(234.753833, 105.067902)"><g><path d="M 4.515625 -10.109375 L 5.828125 -10.109375 C 5.960938 -10.109375 6.03125 -10.039062 6.03125 -9.90625 L 6.03125 -0.203125 C 6.03125 -0.0664062 5.960938 0 5.828125 0 L 4.578125 0 C 4.460938 0 4.382812 -0.0546875 4.34375 -0.171875 L 2.421875 -5.5625 L 2.34375 -5.5625 L 2.34375 -0.203125 C 2.34375 -0.0664062 2.28125 0 2.15625 0 L 0.828125 0 C 0.691406 0 0.625 -0.0664062 0.625 -0.203125 L 0.625 -9.90625 C 0.625 -10.039062 0.691406 -10.109375 0.828125 -10.109375 L 2.078125 -10.109375 C 2.203125 -10.109375 2.28125 -10.054688 2.3125 -9.953125 L 4.234375 -4.578125 L 4.3125 -4.578125 L 4.3125 -9.90625 C 4.3125 -10.039062 4.378906 -10.109375 4.515625 -10.109375 Z M 4.515625 -10.109375 "/></g></g></g><g fill="#ff3131" fill-opacity="1"><g transform="translate(243.821097, 105.067902)"><g><path d="M 5.671875 -9.90625 L 5.671875 -8.640625 C 5.671875 -8.503906 5.601562 -8.4375 5.46875 -8.4375 L 2.3125 -8.4375 L 2.3125 -5.90625 L 4.734375 -5.90625 C 4.867188 -5.90625 4.9375 -5.832031 4.9375 -5.6875 L 4.9375 -4.4375 C 4.9375 -4.289062 4.867188 -4.21875 4.734375 -4.21875 L 2.3125 -4.21875 L 2.3125 -1.671875 L 5.46875 -1.671875 C 5.601562 -1.671875 5.671875 -1.601562 5.671875 -1.46875 L 5.671875 -0.203125 C 5.671875 -0.0664062 5.601562 0 5.46875 0 L 0.828125 0 C 0.691406 0 0.625 -0.0664062 0.625 -0.203125 L 0.625 -9.90625 C 0.625 -10.039062 0.691406 -10.109375 0.828125 -10.109375 L 5.46875 -10.109375 C 5.601562 -10.109375 5.671875 -10.039062 5.671875 -9.90625 Z M 5.671875 -9.90625 "/></g></g></g><g fill="#ff3131" fill-opacity="1"><g transform="translate(252.534256, 105.067902)"><g><path d="M 2.34375 -1.671875 L 2.34375 -9.90625 C 2.34375 -10.039062 2.28125 -10.109375 2.15625 -10.109375 L 0.828125 -10.109375 C 0.691406 -10.109375 0.625 -10.039062 0.625 -9.90625 L 0.625 -0.203125 C 0.625 -0.0664062 0.691406 0 0.828125 0 L 5.359375 0 C 5.492188 0 5.5625 -0.0664062 5.5625 -0.203125 L 5.5625 -1.46875 C 5.5625 -1.601562 5.492188 -1.671875 5.359375 -1.671875 Z M 2.34375 -1.671875 "/></g></g></g></svg>